# AST/ASF file generated using VICON BodyLanguage
# -----------------------------------------------
:version 1.10
:name VICON
:units
  mass 1.0
  length 0.45
  angle deg
:documentation
   .ast/.asf automatically generated from VICON data using
   VICON BodyBuilder and BodyLanguage model FoxedUp or BRILLIANT.MOD
:root
   order TX TY TZ RX RY RZ
   axis XYZ
   position 0 0 0  
   orientation 0 0 0 
:bonedata
  begin
     id 1 
     name lhipjoint
     direction 0.567149 -0.783011 0.255413 
     length 2.28399 
     axis 0 0 0  XYZ
  end
  begin
     id 2 
     name lfemur
     direction 0.34202 -0.939693 0  
     length 7.34031  
     axis 0 0 20  XYZ
    dof rx ry rz
    limits (-160.0 20.0)
           (-70.0 70.0)
           (-60.0 70.0)
  end
  begin
     id 3 
     name ltibia
     direction 0.34202 -0.939693 0   
     length 6.9833   
     axis 0 0 20   XYZ
    dof rx
    limits (-10.0 170.0)
  end
  begin
     id 4 
     name lfoot
     direction 0.136498 -0.375025 0.91691   
     length 2.33665   
     axis -90 7.62852e-016 20   XYZ
    dof rx rz
    limits (-45.0 90.0)
           (-70.0 20.0)
  end
  begin
     id 5 
     name ltoes
     direction 1.5367e-011 -4.21617e-011 1   
     length 1.15039   
     axis -90 7.62852e-016 20   XYZ
    dof rx
    limits (-90.0 20.0)
  end
  begin
     id 6 
     name rhipjoint
     direction -0.602854 -0.758518 0.247423   
     length 2.35775  
     axis 0 0 0  XYZ 
  end
  begin
     id 7 
     name rfemur
     direction -0.34202 -0.939693 0   
     length 7.43932   
     axis 0 0 -20   XYZ
    dof rx ry rz
    limits (-160.0 20.0)
           (-70.0 70.0)
           (-70.0 60.0)
  end
  begin
     id 8 
     name rtibia
     direction -0.34202 -0.939693 0   
     length 7.11893   
     axis 0 0 -20   XYZ
    dof rx
    limits (-10.0 170.0)
 end
 begin
     id 9 
     name rfoot
     direction -0.131771 -0.362037 0.922803   
     length 2.53019  
     axis -90 -7.62852e-016 -20   XYZ
    dof rx rz
    limits (-45.0 90.0)
           (-20.0 70.0)
  end
  begin
     id 10 
     name rtoes
     direction -1.53733e-011 -4.21932e-011 1   
     length 1.24596   
     axis -90 -7.62852e-016 -20   XYZ
    dof rx
    limits (-90.0 20.0)
  end
  begin
     id 11 
     name lowerback
     direction 0.0235427 0.999023 -0.0374125   
     length 2.21768   
     axis 0 0 0   XYZ
    dof rx ry rz
    limits (-20.0 45.0)
           (-30.0 30.0)
           (-30.0 30.0)
  end
  begin
     id 12 
     name upperback
     direction 0.0302156 0.996818 -0.073759   
     length 2.20352   
     axis 0 0 0   XYZ
    dof rx ry rz
    limits (-20.0 45.0)
           (-30.0 30.0)
           (-30.0 30.0)
  end
  begin
     id 13 
     name thorax
     direction 0.0187169 0.998235 -0.0563532   
     length 2.22103   
     axis 0 0 0   XYZ
    dof rx ry rz
    limits (-20.0 45.0)
           (-30.0 30.0)
           (-30.0 30.0)
  end
  begin
     id 14 
     name lowerneck
     direction -0.119528 0.987423 0.103481   
     length 1.72948   
     axis 0 0 0   XYZ
    dof rx ry rz
    limits (-20.0 45.0)
           (-30.0 30.0)
           (-30.0 30.0)
  end
  begin
     id 15 
     name upperneck
     direction 0.248049 0.963095 -0.104496   
     length 1.74979   
     axis 0 0 0   XYZ
    dof rx ry rz
    limits (-20.0 45.0)
           (-30.0 30.0)
           (-30.0 30.0)
  end
  begin
     id 16
     name head
     direction 0.0903589 0.994284 -0.056876  
     length 1.78268  
     axis 0 0 0   XYZ
    dof rx ry rz
    limits (-20.0 45.0)
           (-30.0 30.0)
           (-30.0 30.0)
  end
  begin
     id 17 
     name lclavicle
     direction 0.946008 0.242039 -0.215608  
     length 3.80783  
     axis 0 0 0   XYZ
    dof ry rz
    limits (-20.0 10.0)
           (0.0 20.0)
  end
  begin
     id 18 
     name lhumerus
     direction 1 -4.48991e-011 -2.25695e-027   
     length 4.83125   
     axis 180 -30 -90   XYZ
    dof rx ry rz
    limits (-60.0 90.0)
           (-90.0 90.0)
           (-90.0 90.0)
  end
  begin
     id 19
     name lradius
     direction 0.999991 0.00366712 -0.00211721   
     length 3.00391   
     axis 180 -30 -90   XYZ
    dof rx
    limits (-10.0 170.0)
  end
  begin
     id 20
     name lwrist
     direction 0.999991 0.00393016 -0.00141978   
     length 1.50195   
     axis -1.00488e-014 90 90   XYZ
    dof ry
    limits (-180.0 0.0)
 end
  begin
     id 21 
     name lhand
     direction 1 -4.49123e-011 2.72098e-026   
     length 1.2717   
     axis -1.73687e-014 90 90   XYZ
    dof rx rz
    limits (-90.0 90.0)
           (-45.0 45.0)
  end
  begin
     id 22 
     name lfingers
     direction 1 -4.48678e-011 5.4479e-026   
     length 1.02528   
     axis -3.47372e-014 90 90   XYZ
    dof rx
    limits (0.0 90.0)
  end
  begin
     id 23
     name lthumb
     direction 0.707107 -6.34851e-011 0.707107   
     length 1.4721   
     axis -90 45 -1.62303e-014   XYZ
    dof rx rz
    limits (-45.0 45.0)
           (-45.0 45.0)
  end
  begin
     id 24 
     name rclavicle
     direction -0.981723 0.189447 -0.0181673   
     length 3.74989  
     axis 0 0 0   XYZ 
    dof ry rz
    limits (-10.0 20.0)
           (-20.0 0.0)
  end
  begin
     id 25 
     name rhumerus
     direction -1 -4.48985e-011 2.38206e-027  
     length 4.61118   
     axis 180 30 90   XYZ
    dof rx ry rz
    limits (-90.0 60.0)
           (-90.0 90.0)
           (-90.0 90.0)
  end
  begin
     id 26 
     name rradius
     direction -1 -4.48977e-011 7.41019e-027   
     length 2.91491   
     axis 180 30 90   XYZ
    dof rx
    limits (-10.0 170.0)
  end
  begin
     id 27 
     name rwrist
     direction -1 -4.48549e-011 1.3624e-026   
     length 1.45745   
     axis -1.00488e-014 -90 -90   XYZ
    dof ry
    limits (-180.0 0.0)
  end
  begin
     id 28
     name rhand
     direction -1 -4.49107e-011 2.72109e-026   
     length 1.30769   
     axis -1.73687e-014 -90 -90   XYZ
    dof rx rz
    limits (-90.0 90.0)
           (-45.0 45.0)
  end
  begin
     id 29
     name rfingers
     direction -1 -4.48919e-011 5.44468e-026   
     length 1.05429   
     axis -3.47372e-014 -90 -90   XYZ
    dof rx
    limits (0.0 90.0)
  end
  begin
     id 30
     name rthumb
     direction -0.707107 -6.35315e-011 0.707107   
     length 1.51376   
     axis -90 -45 1.62303e-014   XYZ
    dof rx rz
    limits (-45.0 45.0)
           (-45.0 45.0)
  end
:hierarchy
  begin
    root lhipjoint rhipjoint lowerback
    lhipjoint lfemur
    lfemur ltibia
    ltibia lfoot
    lfoot ltoes
    rhipjoint rfemur
    rfemur rtibia
    rtibia rfoot
    rfoot rtoes
    lowerback upperback
    upperback thorax
    thorax lowerneck lclavicle rclavicle
    lowerneck upperneck
    upperneck head
    lclavicle lhumerus
    lhumerus lradius
    lradius lwrist
    lwrist lhand lthumb
    lhand lfingers
    rclavicle rhumerus
    rhumerus rradius
    rradius rwrist
    rwrist rhand rthumb
    rhand rfingers
  end

#!OML:ASF X:\für Bonn\!DataBase\2005_08_11_Bastian_Final\c3d\Bastian.ASF
:FULLY-SPECIFIED
:DEGREES
1
root -7.53924 17.2456 0.231041 174.363 8.43499 -172.793
lowerback 3.93853 -5.19286 2.33539
upperback 5.79056 -6.46549 3.65175
thorax 3.95688 -2.9856 2.51653
lowerneck -4.85289 -1.59691 1.76118
upperneck -7.47637 -1.73918 1.81097
head -1.50065 -0.781555 0.262342
rclavicle 1.78409e-014 5.88403e-014
rhumerus -416.304 10.8824 -456.166
rradius 78.5867
rwrist -37.5168
rhand -37.2059 723.43
rfingers 7.12502
rthumb -10.2733 -26.2986
lclavicle 1.78409e-014 5.88403e-014
lhumerus -34.897 -9.17551 91.4906
lradius 69.5701
lwrist -144.716
lhand -31.5926 8.94482
lfingers 7.12502
lthumb -4.8554 38.8692
rfemur -11.6137 -22.1297 31.0994
rtibia 39.5314
rfoot -28.4089 -29.762
rtoes 11.918
lfemur 18.6143 19.0898 -11.0859
ltibia 29.9985
lfoot -15.2586 5.12957
ltoes -30.899
2
root -7.52306 17.2293 0.32171 174.415 7.33258 -172.757
lowerback 4.09601 -5.3535 2.07644
upperback 5.7467 -6.67349 3.66684
thorax 3.86172 -3.10133 2.69
lowerneck -4.95243 -1.79429 1.74338
upperneck -7.60566 -1.9814 1.93879
head -1.5236 -0.898341 0.304382
rclavicle -6.40087e-014 3.97569e-014
rhumerus -416.186 10.5347 -456.148
rradius 78.8066
rwrist -36.9884
rhand -37.3507 724.041
rfingers 7.12502
rthumb -10.413 -25.6809
lclavicle -6.40087e-014 3.97569e-014
lhumerus -34.5031 -9.71541 91.4419
lradius 69.8102
lwrist -144.575
lhand -31.6389 8.95749
lfingers 7.12502
lthumb -4.90011 38.8808
rfemur -12.4306 -22.4978 31.3967
rtibia 39.9176
rfoot -28.4856 -30.3474
rtoes 12.5883
lfemur 18.7007 18.2906 -11.7203
ltibia 28.6637
lfoot -16.5415 6.71861
ltoes -30.4929
3
root -7.50626 17.2107 0.413156 174.439 6.24555 -172.746
lowerback 4.28685 -5.50731 1.79086
upperback 5.71723 -6.87154 3.67117
thorax 3.76675 -3.21228 2.87005
lowerneck -5.08679 -1.98966 1.76692
upperneck -7.73773 -2.22389 2.0178
head -1.54236 -1.01485 0.324207
rclavicle 1.49089e-015 -2.38542e-015
rhumerus -416.067 10.3631 -456.205
rradius 79.0996
rwrist -36.4472
rhand -37.6089 724.427
rfingers 7.12502
rthumb -10.662 -25.2823
lclavicle 1.49089e-015 -2.38542e-015
lhumerus -34.0866 -10.2197 91.3515
lradius 70.0852
lwrist -144.556
lhand -31.7712 8.97397
lfingers 7.12502
lthumb -5.0278 38.8943
rfemur -13.2544 -22.834 31.6501
rtibia 40.3655
rfoot -28.5534 -30.901
rtoes 13.3869
lfemur 18.7379 17.6207 -12.2125
ltibia 27.5438
lfoot -17.6861 7.97845
ltoes -30.8309
4
root -7.48748 17.1896 0.505205 174.446 5.19574 -172.73
lowerback 4.48399 -5.63687 1.50972
upperback 5.70711 -7.03685 3.67247
thorax 3.68844 -3.3055 3.04486
lowerneck -5.22937 -2.19126 1.80559
upperneck -7.84353 -2.47634 2.1042
head -1.55139 -1.13677 0.343411
rclavicle -1.22253e-014 -5.76476e-015
rhumerus -416.04 10.354 -456.34
rradius 79.5346
rwrist -35.9876
rhand -37.9544 724.718
rfingers 7.12502
rthumb -10.9953 -24.9743
lclavicle -1.22253e-014 -5.76476e-015
lhumerus -33.6393 -10.7551 91.2528
lradius 70.4038
lwrist -144.678
lhand -31.9227 9.02226
lfingers 7.12502
lthumb -5.17405 38.9391
rfemur -14.0909 -23.1813 31.9031
rtibia 40.865
rfoot -28.5182 -31.4397
rtoes 14.1593
lfemur 18.7473 17.2495 -12.4119
ltibia 26.6137
lfoot -18.5085 8.69258
ltoes -31.3582
5
root -7.46952 17.17 0.596106 174.452 4.15215 -172.714
lowerback 4.68536 -5.75594 1.25618
upperback 5.6896 -7.18816 3.67794
thorax 3.59827 -3.39039 3.21026
lowerneck -5.32286 -2.4145 1.81938
upperneck -7.9876 -2.75341 2.20334
head -1.58021 -1.27094 0.371416
rclavicle -3.75703e-014 4.55217e-014
rhumerus -416.04 10.5008 -456.525
rradius 80.0541
rwrist -35.6395
rhand -38.3925 724.845
rfingers 7.12502
rthumb -11.4179 -24.8239
lclavicle -3.75703e-014 4.55217e-014
lhumerus -33.1745 -11.2786 91.1556
lradius 70.7619
lwrist -144.856
lhand -32.1169 9.00203
lfingers 7.12502
lthumb -5.36157 38.9142
rfemur -14.9315 -23.6983 32.1073
rtibia 41.3922
rfoot -28.2986 -31.7642
rtoes 14.9324
lfemur 18.6935 17.0823 -12.4111
ltibia 25.8802
lfoot -19.124 8.96064
ltoes -32.1305
